<svg width="46" height="46" viewBox="0 0 46 46" fill="none" xmlns="http://www.w3.org/2000/svg">
<rect opacity="0.01" width="46" height="46" fill="#D8D8D8"/>
<path fill-rule="evenodd" clip-rule="evenodd" d="M18.0762 13.9362C20.8511 11.3548 25.149 11.3548 27.9229 13.9352C29.2475 15.1641 30.0003 16.8892 30.0003 18.696C30.0003 20.5027 29.2475 22.2278 27.9311 23.449L23.6884 27.4752C23.3025 27.8414 22.6975 27.8414 22.3117 27.4752L18.0772 23.4567C16.7525 22.2278 15.9997 20.5027 15.9997 18.696C15.9997 16.8892 16.7525 15.1641 18.0762 13.9362ZM27.5335 26.1895C29.2979 26.3758 31.0071 26.9136 32.6295 27.8131C34.0339 28.7443 34.454 30.1139 33.4733 31.3111L33.3631 31.4258C32.1836 32.4714 30.7225 33.147 29.2429 33.3536C27.1892 33.8203 25.0864 34.0358 23.019 33.9953C20.9133 34.0353 18.8105 33.8193 16.8382 33.3671C15.2775 33.1456 13.8165 32.4699 12.637 31.4243L12.5267 31.3097C11.546 30.1125 11.9661 28.7428 13.4401 27.7695C14.9934 26.9126 16.7025 26.3753 18.4668 26.1895C19.0161 26.1316 19.5082 26.53 19.5661 27.0792C19.6239 27.6285 19.2256 28.1206 18.6763 28.1785C17.1776 28.3363 15.7257 28.7927 14.4758 29.4785C14.0419 29.7662 13.961 29.8565 14.0255 29.9742L14.033 29.9861L14.1895 30.1183C14.9569 30.7338 15.8679 31.1537 16.8905 31.3499L17.2006 31.402C19.0962 31.8332 21.0373 32.0326 23.0192 31.9957C24.9629 32.033 26.904 31.8341 28.8807 31.3884C30.053 31.222 31.1504 30.7145 32.0364 29.9292L31.966 29.9881L31.9776 29.9704C32.0323 29.8678 31.9768 29.7878 31.6958 29.5918L31.5936 29.522C30.2742 28.7935 28.8223 28.3367 27.3234 28.1785C26.7742 28.1205 26.376 27.6282 26.434 27.079C26.4878 26.569 26.9161 26.1892 27.4168 26.184C27.4553 26.1836 27.4942 26.1854 27.5335 26.1895ZM19.4374 15.4014C21.4456 13.5333 24.5545 13.5333 26.5616 15.4005C27.4794 16.2519 28.0003 17.4457 28.0003 18.696L27.9934 18.9452C27.9291 20.1039 27.4182 21.1967 26.5626 21.9905L22.999 25.3711L19.4456 21.9982C18.5207 21.14 17.9997 19.9463 17.9997 18.696C17.9997 17.4457 18.5207 16.2519 19.4374 15.4014ZM23.0541 15.9253C24.6857 15.9362 26.0021 17.2629 25.9999 18.9031C25.9834 20.5486 24.637 21.8697 22.9913 21.8554C21.3512 21.8269 20.0492 20.4861 20.0689 18.8547C20.0885 17.2234 21.4225 15.9144 23.0541 15.9253ZM22.0687 18.8789C22.0751 18.3479 22.5094 17.9217 23.0408 17.9253C23.5721 17.9288 24.0006 18.3607 24 18.8918L23.9922 19.0044C23.9354 19.448 23.5745 19.8016 23.1233 19.8499L23.013 19.8551L23.0175 19.8556C22.4862 19.8464 22.0623 19.4099 22.0687 18.8789Z" fill="#141D5B"/>
</svg>
