<svg width="46" height="46" viewBox="0 0 46 46" fill="none" xmlns="http://www.w3.org/2000/svg">
<rect opacity="0.01" width="46" height="46" fill="#D8D8D8"/>
<path fill-rule="evenodd" clip-rule="evenodd" d="M23.4997 12C24.8938 12 26.2303 12.5583 27.2149 13.5511C28.1978 14.5424 28.7496 15.8856 28.7496 17.2857C28.7496 20.2031 26.401 22.5714 23.4997 22.5714C20.5984 22.5714 18.2498 20.2031 18.2498 17.2857C18.2498 14.3684 20.5984 12 23.4997 12ZM23.4997 14C21.7067 14 20.2498 15.4692 20.2498 17.2857C20.2498 19.1022 21.7067 20.5714 23.4997 20.5714C25.2926 20.5714 26.7496 19.1022 26.7496 17.2857C26.7496 16.4125 26.4058 15.5756 25.7947 14.9594C25.1853 14.3448 24.3598 14 23.4997 14ZM27.0087 24.8571L27.0587 24.8584C29.5046 24.9808 31.67 26.4864 32.6269 28.6915C33.9765 31.3597 31.5254 34 28.4125 34H18.5868C15.4755 34 13.0246 31.36 14.3477 28.7442C15.3293 26.4864 17.4947 24.9808 19.9907 24.8571H27.0087ZM20.0407 26.8559C18.3556 26.9402 16.8611 27.9793 16.1574 29.5937C15.5931 30.7109 16.7899 32 18.5868 32H28.4125C30.2107 32 31.4072 30.7112 30.8175 29.5416C30.1414 27.9866 28.6578 26.95 26.9824 26.8571H26.984L26.9587 26.8559L26.9824 26.8571L20.0407 26.8559Z" fill="#141D5B"/>
</svg>
