<svg width="46" height="46" viewBox="0 0 46 46" fill="none" xmlns="http://www.w3.org/2000/svg">
<rect opacity="0.01" width="46" height="46" fill="#D8D8D8"/>
<path fill-rule="evenodd" clip-rule="evenodd" d="M19.5623 13.6163C21.7405 11.4611 25.2595 11.4611 27.4382 13.6168L31.6626 17.8017V14.4543C31.6626 13.9021 32.1103 13.4543 32.6626 13.4543C33.2149 13.4543 33.6626 13.9021 33.6626 14.4543L33.662 19.7803L35.7038 21.8039C36.066 22.1627 36.0963 22.7298 35.7931 23.1235L35.7104 23.2181C35.3217 23.6104 34.6885 23.6134 34.2962 23.2247L33.6587 22.5931L33.6526 28.4753C33.6438 31.5346 31.1473 34.0048 28.0784 33.9999H18.9274C15.855 34.0047 13.3576 31.5314 13.3518 28.47V22.5827L12.7038 23.2247C12.3115 23.6134 11.6783 23.6104 11.2896 23.2181C10.9009 22.8258 10.9039 22.1926 11.2962 21.8039L13.6479 19.4739C13.6482 19.4737 13.6484 19.4734 13.6487 19.4732L19.5623 13.6163ZM31.6607 20.6149L26.031 15.0381C24.6321 13.6539 22.3679 13.6539 20.9693 15.0377L15.3518 20.5999L15.3517 28.4681C15.3553 30.3575 16.8519 31.9005 18.7362 31.9953L18.9259 31.9999H19.625V30.4571C19.625 28.3255 21.3613 26.6 23.5 26.6C25.6387 26.6 27.375 28.3255 27.375 30.4571V31.9999H28.08C30.0496 32.003 31.647 30.4226 31.6526 28.4714L31.6607 20.6149ZM25.375 31.9999V30.4571C25.375 29.4328 24.5369 28.6 23.5 28.6C22.4631 28.6 21.625 29.4328 21.625 30.4571V31.9999H25.375Z" fill="black"/>
</svg>
