<svg width="46" height="46" viewBox="0 0 46 46" fill="none" xmlns="http://www.w3.org/2000/svg">
<g opacity="0.504154">
<rect opacity="0.01" width="46" height="46" fill="#D8D8D8"/>
<path fill-rule="evenodd" clip-rule="evenodd" d="M13 26.9073C13.0205 29.5449 15.2111 31.6678 17.8952 31.6512H18.5586L20.52 33.6844C20.719 33.8861 20.9927 34 21.2786 34C21.5645 34 21.8382 33.8861 22.0372 33.6844L23.9986 31.6512H24.6621C27.344 31.6648 29.5312 29.5428 29.5517 26.9073V21.1332C29.5312 18.4956 27.3407 16.3727 24.6566 16.3893H17.8979C15.2127 16.3712 13.0205 18.4946 13 21.1332V26.9073Z" stroke="black" stroke-width="2" stroke-linecap="round" stroke-linejoin="round"/>
<path d="M15.4483 16.3893C15.4483 16.9416 15.896 17.3893 16.4483 17.3893C17.0006 17.3893 17.4483 16.9416 17.4483 16.3893H15.4483ZM28.1021 13.0008V14.0008C28.1081 14.0008 28.1142 14.0008 28.1203 14.0006L28.1021 13.0008ZM31.5286 14.3231L30.841 15.0492L30.841 15.0492L31.5286 14.3231ZM33 17.639H34C34 17.6328 33.9999 17.6265 33.9998 17.6202L33 17.639ZM29.5517 26.9104C28.9994 26.9104 28.5517 27.3581 28.5517 27.9104C28.5517 28.4627 28.9994 28.9104 29.5517 28.9104V26.9104ZM17.1379 21.4887C16.5856 21.4887 16.1379 21.9364 16.1379 22.4887C16.1379 23.041 16.5856 23.4887 17.1379 23.4887V21.4887ZM25.0897 23.4887C25.6419 23.4887 26.0897 23.041 26.0897 22.4887C26.0897 21.9364 25.6419 21.4887 25.0897 21.4887V23.4887ZM18.1324 24.3459C17.5801 24.3459 17.1324 24.7936 17.1324 25.3459C17.1324 25.8982 17.5801 26.3459 18.1324 26.3459V24.3459ZM24.0952 26.3459C24.6475 26.3459 25.0952 25.8982 25.0952 25.3459C25.0952 24.7936 24.6475 24.3459 24.0952 24.3459V26.3459ZM17.4483 16.3893C17.4483 15.4578 17.8133 14.9389 18.3933 14.5939C19.0517 14.2022 20.0622 14.0008 21.3434 14.0008V12.0008C19.9212 12.0008 18.4841 12.2128 17.3709 12.875C16.1791 13.5838 15.4483 14.7592 15.4483 16.3893H17.4483ZM21.3434 14.0008H28.1021V12.0008H21.3434V14.0008ZM28.1203 14.0006C29.1361 13.9822 30.1146 14.3612 30.841 15.0492L32.2162 13.597C31.1056 12.5452 29.6189 11.973 28.0839 12.001L28.1203 14.0006ZM30.841 15.0492C31.5669 15.7365 31.9817 16.6754 32.0002 17.6578L33.9998 17.6202C33.9712 16.0961 33.3274 14.6493 32.2162 13.597L30.841 15.0492ZM32 17.639V23.2721H34V17.639H32ZM32 23.2721C32 24.5019 31.8269 25.4303 31.459 26.0273C31.1479 26.5322 30.6324 26.9104 29.5517 26.9104V28.9104C31.2296 28.9104 32.4383 28.2503 33.1617 27.0765C33.8282 25.9949 34 24.6042 34 23.2721H32ZM17.1379 23.4887H25.0897V21.4887H17.1379V23.4887ZM18.1324 26.3459H24.0952V24.3459H18.1324V26.3459Z" fill="black"/>
</g>
</svg>
