<svg width="46" height="46" viewBox="0 0 46 46" fill="none" xmlns="http://www.w3.org/2000/svg">
<rect opacity="0.01" width="46" height="46" fill="#D8D8D8"/>
<path fill-rule="evenodd" clip-rule="evenodd" d="M32.6526 28.4743L32.6612 20.1986L26.7344 14.3273C24.9458 12.5576 22.0542 12.5576 20.2656 14.3273L14.3518 20.1844V28.47C14.3565 30.976 16.4042 33.0039 18.9259 33H28.0784C30.5985 33.0039 32.6454 30.9786 32.6526 28.4743Z" stroke="black" stroke-width="2" stroke-linecap="round" stroke-linejoin="round"/>
<path d="M33.6626 14.4543C33.6626 13.9021 33.2149 13.4543 32.6626 13.4543C32.1103 13.4543 31.6626 13.9021 31.6626 14.4543H33.6626ZM32.6626 20.1986H31.6626C31.6626 20.4654 31.7693 20.7212 31.9588 20.909L32.6626 20.1986ZM34.2962 23.2247C34.6885 23.6134 35.3217 23.6104 35.7104 23.2181C36.0991 22.8258 36.0961 22.1926 35.7038 21.8039L34.2962 23.2247ZM15.0556 20.8947C15.4479 20.506 15.4508 19.8728 15.0621 19.4805C14.6734 19.0882 14.0403 19.0852 13.6479 19.4739L15.0556 20.8947ZM11.2962 21.8039C10.9039 22.1926 10.9009 22.8258 11.2896 23.2181C11.6783 23.6104 12.3115 23.6134 12.7038 23.2247L11.2962 21.8039ZM25.375 32.9999C25.375 33.5522 25.8227 33.9999 26.375 33.9999C26.9273 33.9999 27.375 33.5522 27.375 32.9999H25.375ZM19.625 32.9999C19.625 33.5522 20.0727 33.9999 20.625 33.9999C21.1773 33.9999 21.625 33.5522 21.625 32.9999H19.625ZM31.6626 14.4543V20.1986H33.6626V14.4543H31.6626ZM31.9588 20.909L34.2962 23.2247L35.7038 21.8039L33.3664 19.4882L31.9588 20.909ZM13.6479 19.4739L11.2962 21.8039L12.7038 23.2247L15.0556 20.8947L13.6479 19.4739ZM27.375 32.9999V30.4571H25.375V32.9999H27.375ZM27.375 30.4571C27.375 28.321 25.6342 26.6 23.5 26.6V28.6C24.5414 28.6 25.375 29.4373 25.375 30.4571H27.375ZM23.5 26.6C21.3658 26.6 19.625 28.321 19.625 30.4571H21.625C21.625 29.4373 22.4586 28.6 23.5 28.6V26.6ZM19.625 30.4571V32.9999H21.625V30.4571H19.625Z" fill="black"/>
</svg>
