<svg width="36" height="36" viewBox="0 0 36 36" fill="none" xmlns="http://www.w3.org/2000/svg">
<rect opacity="0.01" width="36" height="36" fill="#D8D8D8"/>
<path fill-rule="evenodd" clip-rule="evenodd" d="M22.5036 10.9565C21.2072 10.9565 19.964 11.4602 19.0476 12.3566L18.7824 12.6158L18.5171 12.3564C16.6085 10.4904 13.514 10.4904 11.6054 12.3564C9.69676 14.2224 9.69676 17.2478 11.6054 19.1138L18.2508 25.6108C18.5444 25.8979 19.0204 25.8979 19.314 25.6108L25.9594 19.1138C26.8762 18.218 27.3913 17.0025 27.3913 15.7351C27.3913 14.4677 26.8762 13.2523 25.9596 12.3566C25.0431 11.4602 23.7999 10.9565 22.5036 10.9565ZM24.0995 18.8535L18.7824 24.0518L12.6685 18.0744C11.347 16.7825 11.347 14.6878 12.6685 13.3958C13.99 12.1039 16.1325 12.1039 17.454 13.3958L18.2508 14.1749C18.5444 14.4619 19.0204 14.4619 19.314 14.1749L20.1108 13.3958C20.7454 12.7751 21.6061 12.4265 22.5036 12.4265C23.401 12.4265 24.2617 12.7751 24.8964 13.3959C25.5312 14.0162 25.8878 14.8577 25.8878 15.7351C25.8878 16.6125 25.5312 17.454 24.8964 18.0743L24.0995 18.8535Z" fill="black"/>
<mask id="mask0_0_1892" style="mask-type:luminance" maskUnits="userSpaceOnUse" x="10" y="10" width="18" height="16">
<path fill-rule="evenodd" clip-rule="evenodd" d="M22.5036 10.9565C21.2072 10.9565 19.964 11.4602 19.0476 12.3566L18.7824 12.6158L18.5171 12.3564C16.6085 10.4904 13.514 10.4904 11.6054 12.3564C9.69676 14.2224 9.69676 17.2478 11.6054 19.1138L18.2508 25.6108C18.5444 25.8979 19.0204 25.8979 19.314 25.6108L25.9594 19.1138C26.8762 18.218 27.3913 17.0025 27.3913 15.7351C27.3913 14.4677 26.8762 13.2523 25.9596 12.3566C25.0431 11.4602 23.7999 10.9565 22.5036 10.9565ZM24.0995 18.8535L18.7824 24.0518L12.6685 18.0744C11.347 16.7825 11.347 14.6878 12.6685 13.3958C13.99 12.1039 16.1325 12.1039 17.454 13.3958L18.2508 14.1749C18.5444 14.4619 19.0204 14.4619 19.314 14.1749L20.1108 13.3958C20.7454 12.7751 21.6061 12.4265 22.5036 12.4265C23.401 12.4265 24.2617 12.7751 24.8964 13.3959C25.5312 14.0162 25.8878 14.8577 25.8878 15.7351C25.8878 16.6125 25.5312 17.454 24.8964 18.0743L24.0995 18.8535Z" fill="white"/>
</mask>
<g mask="url(#mask0_0_1892)">
<rect x="8.6087" y="8.6087" width="18.7826" height="18.7826" fill="#141D5B"/>
</g>
</svg>
