<svg width="46" height="46" viewBox="0 0 46 46" fill="none" xmlns="http://www.w3.org/2000/svg">
<g opacity="0.504154">
<rect opacity="0.01" width="46" height="46" fill="#D8D8D8"/>
<path d="M18.6763 28.1784C19.2256 28.1205 19.6239 27.6284 19.5661 27.0791C19.5082 26.5299 19.0161 26.1315 18.4668 26.1894L18.6763 28.1784ZM13.9231 28.645L13.4401 27.7694C13.4163 27.7825 13.3931 27.7965 13.3705 27.8115L13.9231 28.645ZM13.3003 30.6759L12.5267 31.3096C12.5603 31.3507 12.5972 31.389 12.6369 31.4242L13.3003 30.6759ZM16.9788 32.377L17.2006 31.4019C17.1737 31.3958 17.1466 31.3908 17.1193 31.3869L16.9788 32.377ZM23 32.9954L23.0192 31.9956C23.0065 31.9953 22.9937 31.9953 22.981 31.9956L23 32.9954ZM29.0212 32.3784L28.8807 31.3883C28.8535 31.3922 28.8264 31.3972 28.7996 31.4032L29.0212 32.3784ZM32.6997 30.6774L33.3631 31.4257C33.4028 31.3904 33.4397 31.3521 33.4733 31.311L32.6997 30.6774ZM32.0769 28.6464L32.6295 27.813C32.607 27.798 32.5838 27.784 32.5602 27.771L32.0769 28.6464ZM27.5334 26.1894C26.9842 26.1314 26.492 26.5296 26.434 27.0789C26.376 27.6281 26.7742 28.1204 27.3234 28.1783L27.5334 26.1894ZM23 26.7497L22.3116 27.4751C22.6975 27.8412 23.3025 27.8412 23.6884 27.4751L23 26.7497ZM18.7573 22.7235L19.4457 21.9981L19.4374 21.9904L18.7573 22.7235ZM18.7573 14.6682L19.4374 15.4013L19.4384 15.4004L18.7573 14.6682ZM27.2427 14.6682L26.5616 15.4004L26.5626 15.4013L27.2427 14.6682ZM27.2427 22.7235L26.5626 21.9903L26.5544 21.9981L27.2427 22.7235ZM23 20.8554L22.9826 21.8552L22.9913 21.8553L23 20.8554ZM23.0474 16.9252L23.0541 15.9252L23.0474 16.9252ZM24.9999 18.893L25.9999 18.903L25.9999 18.8943L24.9999 18.893ZM18.4668 26.1894C16.7025 26.3752 14.9933 26.9124 13.4401 27.7694L14.4062 29.5206C15.7257 28.7926 17.1776 28.3362 18.6763 28.1784L18.4668 26.1894ZM13.3705 27.8115C12.8016 28.1888 12.2902 28.6914 12.0878 29.3511C11.8642 30.0802 12.0842 30.7693 12.5267 31.3096L14.0739 30.0423C14.0094 29.9635 13.9994 29.9229 13.9993 29.9224C13.9992 29.922 14.0002 29.9263 14 29.9329C13.9998 29.9395 13.9987 29.9417 13.9999 29.9376C14.0083 29.9104 14.0862 29.7367 14.4758 29.4784L13.3705 27.8115ZM12.6369 31.4242C13.8165 32.4698 15.2775 33.1455 16.8382 33.367L17.1193 31.3869C15.947 31.2205 14.8496 30.713 13.9637 29.9276L12.6369 31.4242ZM16.7569 33.352C18.8105 33.8192 20.9133 34.0352 23.019 33.9952L22.981 31.9956C21.0373 32.0325 19.0962 31.8331 17.2006 31.4019L16.7569 33.352ZM22.9808 33.9952C25.0864 34.0357 27.1892 33.8202 29.2428 33.3535L28.7996 31.4032C26.9039 31.834 24.9629 32.0329 23.0192 31.9956L22.9808 33.9952ZM29.1618 33.3685C30.7225 33.1469 32.1835 32.4713 33.3631 31.4257L32.0363 29.929C31.1504 30.7144 30.053 31.2219 28.8807 31.3883L29.1618 33.3685ZM33.4733 31.311C33.9158 30.7707 34.1358 30.0816 33.9122 29.3526C33.7098 28.6928 33.1984 28.1902 32.6295 27.813L31.5242 29.4798C31.9138 29.7381 31.9917 29.9118 32.0001 29.939C32.0013 29.9431 32.0002 29.941 32 29.9344C31.9998 29.9277 32.0008 29.9235 32.0007 29.9238C32.0006 29.9243 31.9906 29.965 31.9261 30.0437L33.4733 31.311ZM32.5602 27.771C31.007 26.9135 29.2978 26.3757 27.5334 26.1894L27.3234 28.1783C28.8223 28.3366 30.2742 28.7934 31.5935 29.5218L32.5602 27.771ZM23.6884 26.0243L19.4456 21.9981L18.0689 23.4489L22.3116 27.4751L23.6884 26.0243ZM19.4374 21.9904C18.5206 21.1399 17.9997 19.9461 17.9997 18.6959H15.9997C15.9997 20.5026 16.7525 22.2277 18.0772 23.4566L19.4374 21.9904ZM17.9997 18.6959C17.9997 17.4456 18.5206 16.2518 19.4374 15.4013L18.0772 13.9351C16.7525 15.164 15.9997 16.8891 15.9997 18.6959H17.9997ZM19.4384 15.4004C21.4455 13.5332 24.5545 13.5332 26.5616 15.4004L27.9238 13.936C25.149 11.3547 20.851 11.3547 18.0762 13.936L19.4384 15.4004ZM26.5626 15.4013C27.4794 16.2518 28.0003 17.4456 28.0003 18.6959H30.0003C30.0003 16.8891 29.2475 15.164 27.9228 13.9351L26.5626 15.4013ZM28.0003 18.6959C28.0003 19.9461 27.4794 21.1399 26.5626 21.9904L27.9228 23.4566C29.2475 22.2277 30.0003 20.5026 30.0003 18.6959H28.0003ZM26.5544 21.9981L22.3116 26.0243L23.6884 27.4751L27.9311 23.4489L26.5544 21.9981ZM23.0174 19.8555C22.486 19.8462 22.0623 19.4096 22.0687 18.8788L20.0688 18.8546C20.0492 20.4861 21.3513 21.8267 22.9826 21.8552L23.0174 19.8555ZM22.0687 18.8788C22.0751 18.3479 22.5093 17.9216 23.0407 17.9252L23.0541 15.9252C21.4227 15.9143 20.0885 17.2231 20.0688 18.8546L22.0687 18.8788ZM23.0407 17.9252C23.5722 17.9287 24.0006 18.3608 23.9999 18.8916L25.9999 18.8943C26.0021 17.2626 24.6855 15.9361 23.0541 15.9252L23.0407 17.9252ZM24 18.8829C23.9945 19.4247 23.5511 19.8601 23.0087 19.8554L22.9913 21.8553C24.6368 21.8696 25.9833 20.5487 25.9999 18.903L24 18.8829Z" fill="black"/>
</g>
</svg>
