<svg width="46" height="46" viewBox="0 0 46 46" fill="none" xmlns="http://www.w3.org/2000/svg">
<g opacity="0.504154">
<rect opacity="0.01" width="46" height="46" fill="#D8D8D8"/>
<path fill-rule="evenodd" clip-rule="evenodd" d="M27.0087 25.8572H19.9907C17.9252 25.9606 16.0952 27.2329 15.2648 29.1429C14.2633 31.1257 16.2621 33 18.5868 33H28.4126C30.7387 33 32.7375 31.1257 31.7346 29.1429C30.9042 27.2329 29.0742 25.9606 27.0087 25.8572Z" stroke="black" stroke-width="2" stroke-linecap="round" stroke-linejoin="round"/>
<path fill-rule="evenodd" clip-rule="evenodd" d="M27.7496 17.2857C27.7496 19.6526 25.8468 21.5714 23.4997 21.5714C21.1525 21.5714 19.2498 19.6526 19.2498 17.2857C19.2498 14.9188 21.1525 13 23.4997 13C24.6268 13 25.7078 13.4515 26.5048 14.2553C27.3018 15.059 27.7496 16.1491 27.7496 17.2857Z" stroke="black" stroke-width="2" stroke-linecap="round" stroke-linejoin="round"/>
</g>
</svg>
